<svg version="1.1" id="Layer_1" xmlns="http://www.w3.org/2000/svg" xmlns:xlink="http://www.w3.org/1999/xlink" x="0px" y="0px"
	 width="100%" viewBox="0 0 200 200" enable-background="new 0 0 200 200" xml:space="preserve">
<path fill="#010101" opacity="1.000000" stroke="none" 
	d="
M131.000000,201.000000 
	C87.333336,201.000000 44.166672,201.000000 1.000006,201.000000 
	C1.000004,134.333344 1.000004,67.666679 1.000002,1.000015 
	C67.666656,1.000010 134.333313,1.000010 200.999969,1.000005 
	C200.999985,67.666649 200.999985,134.333298 201.000000,200.999969 
	C177.833328,201.000000 154.666672,201.000000 131.000000,201.000000 
M162.208130,71.346863 
	C156.145218,49.846977 142.539047,35.525806 121.186607,28.928967 
	C96.920654,21.432005 71.970573,26.325617 47.311417,24.579584 
	C47.311417,76.168739 47.311417,127.046761 47.311417,178.626221 
	C68.110489,178.062302 88.706093,178.801926 108.987801,176.621613 
	C133.690582,173.966064 151.473755,160.264816 160.173111,136.410965 
	C167.870377,115.304901 167.680374,93.747902 162.208130,71.346863 
z"/>
<path fill="#FEFEFE" opacity="1.000000" stroke="none" 
	d="
M162.380676,71.716591 
	C167.680374,93.747902 167.870377,115.304901 160.173111,136.410965 
	C151.473755,160.264816 133.690582,173.966064 108.987801,176.621613 
	C88.706093,178.801926 68.110489,178.062302 47.311417,178.626221 
	C47.311417,127.046761 47.311417,76.168739 47.311417,24.579584 
	C71.970573,26.325617 96.920654,21.432005 121.186607,28.928967 
	C142.539047,35.525806 156.145218,49.846977 162.380676,71.716591 
M87.821899,102.499931 
	C87.821899,116.778404 87.821899,131.056870 87.821899,145.313034 
	C108.060341,145.823471 120.301445,136.416626 122.751732,116.977745 
	C124.127968,106.059692 124.107880,94.666550 122.663734,83.759300 
	C120.251595,65.541046 106.760910,55.985485 87.821899,57.712379 
	C87.821899,72.271729 87.821899,86.885826 87.821899,102.499931 
z"/>
<path fill="#010101" opacity="1.000000" stroke="none" 
	d="
M87.821899,101.999924 
	C87.821899,86.885826 87.821899,72.271729 87.821899,57.712379 
	C106.760910,55.985485 120.251595,65.541046 122.663734,83.759300 
	C124.107880,94.666550 124.127968,106.059692 122.751732,116.977745 
	C120.301445,136.416626 108.060341,145.823471 87.821899,145.313034 
	C87.821899,131.056870 87.821899,116.778404 87.821899,101.999924 
z"/>
</svg>