<?xml version="1.0" standalone="no"?>
<!DOCTYPE svg PUBLIC "-//W3C//DTD SVG 20010904//EN"
 "http://www.w3.org/TR/2001/REC-SVG-20010904/DTD/svg10.dtd">
<svg version="1.0" xmlns="http://www.w3.org/2000/svg"
 width="5283.000000pt" height="275.000000pt" viewBox="0 0 5283.000000 275.000000"
 preserveAspectRatio="xMidYMid meet">

<g transform="translate(0.000000,275.000000) scale(0.100000,-0.100000)"
fill="#000000" stroke="none">
<path d="M0 1375 l0 -1375 26415 0 26415 0 0 1375 0 1375 -2234 0 -2233 0 -6
-99 c-3 -68 -11 -113 -26 -145 -33 -75 -123 -160 -271 -257 -74 -48 -211 -141
-303 -206 -298 -210 -371 -243 -616 -288 -97 -17 -222 -52 -399 -109 -283 -93
-355 -106 -564 -106 -281 0 -666 47 -868 105 -223 64 -664 236 -885 345 -500
247 -793 504 -813 711 l-5 49 -5258 0 c-4924 0 -5259 -1 -5259 -17 0 -9 -9
-35 -20 -57 -10 -23 -31 -84 -44 -136 -32 -116 -60 -175 -150 -309 -82 -123
-196 -247 -280 -304 -121 -82 -318 -158 -501 -194 -128 -25 -386 -24 -520 1
-458 86 -802 359 -929 738 -21 62 -26 96 -26 177 l0 101 -1160 0 -1160 0 0
-44 c0 -25 -5 -48 -10 -51 -6 -4 -21 -28 -35 -54 -35 -71 -67 -104 -176 -187
-493 -373 -969 -569 -1579 -651 -196 -26 -767 -26 -960 1 -240 32 -504 90
-672 147 -55 18 -506 262 -738 399 -265 156 -410 296 -410 396 l0 44 -11860 0
-11860 0 0 -1375z"/>
</g>
</svg>
